<?xml version="1.0" encoding="utf-8"?>
<!-- Generator: Adobe Illustrator 16.0.0, SVG Export Plug-In . SVG Version: 6.00 Build 0)  -->
<!DOCTYPE svg PUBLIC "-//W3C//DTD SVG 1.1//EN" "http://www.w3.org/Graphics/SVG/1.1/DTD/svg11.dtd">
<svg version="1.1" id="Layer_1" xmlns="http://www.w3.org/2000/svg" xmlns:xlink="http://www.w3.org/1999/xlink" x="0px" y="0px"
	 width="372.184px" height="293.421px" viewBox="0 0 372.184 293.421" enable-background="new 0 0 372.184 293.421"
	 xml:space="preserve">
<g>
	<path fill="#FFFFFF" d="M222.214,124.325L198.8,135.4l3.299,3.477l13.634,28.825l0.603,4.76l23.409-11.074l4.029-11.266
		l-10.295-21.768L222.214,124.325z M230.637,153.24l-2.123,2.659l-3.528,1.672l-1.302-0.465l-8.626-18.236l0.312-0.865l3.824-1.81
		l3.405,0.045l2.662,2.125l5.423,11.471L230.637,153.24z"/>
	<polygon fill="#FFFFFF" points="269.51,138.633 259.829,142.467 258.558,141.915 256.521,136.766 256.89,135.924 260.521,134.485 
		264.982,134.263 260.457,122.828 257.053,125.713 253.421,127.149 252.575,126.784 251.138,123.152 251.501,122.307 260.888,118.6 
		266.494,118.271 258.926,109.227 235.446,118.514 238.517,122.198 250.243,151.846 250.524,156.634 274.913,146.993 
		274.238,134.663 	"/>
	<path fill="#FFFFFF" d="M294.701,101.094l-0.296-4.014l-19.771,6.537l2.148,3.401l2.059,33.589l-0.793,5.064l13.465-4.454
		l-2.048-4.122l-0.381-3.646l0.412-0.82l9.577-3.166l0.822,0.412l1.928,3.138l0.814,4.526l14.022-4.636l-3.59-3.608L294.701,101.094
		z M294.031,121.878l-5.121,1.695l-0.824-0.416l-1.104-12.658l-0.408-2.265l1.028,2.057l6.845,10.761L294.031,121.878z"/>
	<path fill="#FFFFFF" d="M343.912,91.858l-10.374-5.953l-25,6.763l2.632,4.004l8.328,30.781l-0.252,4.792l25-6.772l5.953-10.374
		L343.912,91.858z M336.718,115.85l-2.559,2.243l-3.768,1.021l-1.194-0.688l-5.274-19.473l0.457-0.799l4.084-1.106l3.34,0.647
		l2.245,2.562l3.312,12.247L336.718,115.85z"/>
	<polygon fill="#FFFFFF" points="67.351,55.22 82.465,57.086 81.36,51.701 84.464,26.512 85.192,25.949 89.842,26.52 95.725,29.344 
		93.167,17.094 66.689,13.831 61.231,25.09 67.622,23.78 72.274,24.353 72.839,25.08 69.734,50.268 	"/>
	<polygon fill="#FFFFFF" points="100.969,53.871 99.516,58.439 113.898,58.301 112.354,53.761 112.245,42.376 112.891,41.717 
		120.05,41.646 120.704,42.291 120.815,53.681 119.361,58.25 133.741,58.11 132.206,53.57 131.896,21.682 133.348,17.114 
		118.968,17.253 120.505,21.793 120.596,30.903 119.95,31.562 112.794,31.628 112.139,30.983 112.049,21.875 113.5,17.305 
		99.118,17.447 100.658,21.987 	"/>
	<polygon fill="#FFFFFF" points="146.187,57.103 172.152,53.423 174.375,41.277 168.855,44.034 158.545,45.494 157.44,44.666 
		156.664,39.187 157.217,38.454 161.083,37.904 165.471,38.73 163.745,26.549 159.76,28.562 155.887,29.112 155.154,28.557 
		154.612,24.693 155.158,23.955 165.147,22.542 170.673,23.529 165.434,12.969 140.434,16.514 142.552,20.814 147.031,52.386 	"/>
	<polygon fill="#FFFFFF" points="50.343,95.666 48.956,103.021 46.674,104.575 42.517,103.791 40.203,102.025 39.403,99.225 
		42.184,84.521 44.386,81.629 48.586,80.43 56.452,81.917 63.64,85.926 61.767,71.993 41.305,68.131 30.66,75.391 25.469,102.888 
		32.213,112.77 50.757,116.271 60.639,109.53 60.603,106.215 62.416,96.62 65.496,92.564 48.555,89.365 	"/>
	<polygon fill="#FFFFFF" points="84.581,110.37 83.694,109.308 86.261,81.766 88.748,76.118 72.547,74.605 73.685,79.943 
		70.429,114.935 68.327,119.965 94.897,122.441 100.536,109.565 93.651,111.208 	"/>
	<path fill="#FFFFFF" d="M130.563,75.44l-20.129,1.271l-7.911,8.977l1.802,28.578l8.975,7.911l20.137-1.272l7.906-8.973
		l-1.804-28.58L130.563,75.44z M126.829,109.253l-2.512,1.465l-3.25,0.204l-2.679-1.132l-1.464-2.516l-1.063-16.89l1.135-2.672
		l2.513-1.468l3.249-0.202l2.678,1.135l1.464,2.517l1.063,16.886L126.829,109.253z"/>
	<path fill="#FFFFFF" d="M180.279,95.228l4.765-6.776l-2.185-12.502l-9.782-6.882l-27.888,4.858l2.495,4.849l6.029,34.619
		l-0.706,5.409l15.386-2.68l-2.499-4.852l-1.62-9.294l0.529-0.75l3.527-0.615l1.392,0.417l7.32,13.589l14.426-2.515l-4.586-5.476
		L180.279,95.228z M170.81,88.292l-2.338,1.728l-5.451,0.95l-0.752-0.534l-1.397-8.014l0.529-0.747l5.449-0.954l2.79,0.838
		l1.73,2.341l0.275,1.598L170.81,88.292z"/>
	<polygon fill="#FFFFFF" points="214.041,106.777 211.303,102.055 203.534,67.783 203.976,62.35 188.426,65.873 191.16,70.59 
		198.923,104.86 198.491,110.297 	"/>
	<path fill="#FFFFFF" d="M230.4,102.789l19.528-5.047l6.077-10.31l-7.168-27.723l-10.307-6.071l-19.532,5.051l-6.072,10.305
		l7.165,27.723L230.4,102.789z M227.515,68.25l2.196-1.912l3.15-0.813l2.846,0.603l1.911,2.197l4.234,16.38l-0.607,2.846
		l-2.198,1.91l-3.147,0.818l-2.844-0.61l-1.914-2.198l-4.232-16.379L227.515,68.25z"/>
	<polygon fill="#FFFFFF" points="263.271,82.027 263.516,85.334 273.934,91.218 292.424,86.079 298.311,75.666 296.815,72.708 
		289.149,45.12 289.327,39.665 274.902,43.671 277.864,48.255 284.742,73.019 284.188,75.877 282.027,77.828 279.523,78.525 
		276.661,77.966 274.714,75.806 267.833,51.041 268.006,45.588 252.646,49.858 255.603,54.439 	"/>
	<polygon fill="#FFFFFF" points="308.238,60.364 318.565,59.866 320.567,60.997 321.264,63.506 320.845,65.646 319.225,67.113 
		310.259,69.599 303.062,69.23 310.896,80.9 329.393,75.769 335.28,65.357 331.891,53.129 324.28,48.823 313.957,49.328 
		312.352,48.42 312.006,47.165 312.426,45.022 314.048,43.56 322.954,41.09 328.863,41.475 321.61,30.658 304.052,35.526 
		298.158,45.941 301.026,56.289 	"/>
</g>
<g>
	<g>
		<path fill="#F5F5F5" d="M140.138,173.051l-0.369-1.809c1.513-0.312,2.57-2.322,3.163-6.024l0.26-1.546
			c0.33-2.051,0.773-3.535,1.334-4.452c0.562-0.918,1.592-1.864,3.093-2.837c-2.829,0.236-5.145-0.214-6.948-1.354
			c-1.803-1.137-2.942-2.864-3.416-5.177c-0.512-2.486,0.046-4.782,1.68-6.891c1.632-2.111,3.907-3.461,6.819-4.063
			c4.256-0.875,8.079,0.273,11.465,3.446l-1.321,1.548c-2.15-1.785-4.44-2.432-6.871-1.929c-1.922,0.394-3.449,1.359-4.583,2.898
			c-1.131,1.533-1.514,3.187-1.155,4.947c0.286,1.397,1.054,2.454,2.297,3.184c1.245,0.722,2.639,0.922,4.194,0.603
			c2.527-0.52,4.983-2.363,7.371-5.528l0.985-1.267c2.054-2.712,4.557-5.071,7.503-7.084c2.949-2.015,5.792-3.305,8.532-3.864
			c4.392-0.903,8.33-0.33,11.809,1.731c3.483,2.059,5.633,5.067,6.449,9.031c0.875,4.258-0.008,8.163-2.65,11.71
			c-2.643,3.554-6.354,5.818-11.131,6.8l-0.555,0.118l-0.371-1.808c3.6-1.005,6.223-2.759,7.865-5.252
			c1.644-2.496,2.12-5.443,1.419-8.844c-0.759-3.668-2.579-6.478-5.47-8.412c-2.889-1.938-6.142-2.534-9.757-1.79
			c-3.553,0.729-6.557,2.537-9.011,5.434c-2.452,2.898-3.394,5.744-2.819,8.543c0.305,1.476,1.061,2.67,2.272,3.57
			c1.205,0.911,2.463,1.227,3.768,0.962c1.203-0.251,2.126-0.911,2.76-1.997c0.642-1.081,0.819-2.294,0.544-3.637
			c-0.089-0.425-0.259-0.918-0.515-1.474l1.635-0.911c0.651,1.184,1.091,2.345,1.325,3.494c0.484,2.354,0.232,4.417-0.758,6.203
			c-0.993,1.782-2.487,2.88-4.488,3.29c-1.34,0.276-2.622,0.18-3.843-0.301c-1.223-0.479-2.387-1.329-3.491-2.562
			c-1.038,6.472-5.938,10.609-14.703,12.41L140.138,173.051z M156.5,152.155c-2.533,2.163-4.335,4.015-5.406,5.55
			s-1.825,3.403-2.265,5.598l-0.218,1.02c-0.463,2.381-1.252,4.236-2.376,5.564c8.817-2.303,12.368-7.651,10.643-16.044
			L156.5,152.155z"/>
	</g>
	<g>
		<path fill="#F5F5F5" d="M107.042,150.307l0.259-0.94c0.788,0.215,1.76-0.479,2.926-2.079l0.49-0.666
			c0.644-0.888,1.205-1.481,1.688-1.777c0.483-0.298,1.195-0.497,2.132-0.599c-1.389-0.564-2.368-1.325-2.946-2.294
			c-0.58-0.962-0.704-2.048-0.377-3.251c0.351-1.29,1.163-2.237,2.433-2.837c1.275-0.603,2.667-0.7,4.178-0.283
			c2.213,0.6,3.737,2.051,4.577,4.349l-0.991,0.416c-0.585-1.353-1.511-2.205-2.776-2.543c-0.998-0.272-1.945-0.185-2.844,0.269
			c-0.897,0.458-1.474,1.14-1.724,2.055c-0.197,0.726-0.09,1.408,0.323,2.044c0.413,0.637,1.025,1.066,1.831,1.284
			c1.312,0.359,2.908,0.08,4.784-0.842l0.766-0.363c1.613-0.783,3.354-1.297,5.221-1.546c1.868-0.247,3.516-0.174,4.939,0.214
			c2.28,0.621,3.992,1.832,5.141,3.63c1.147,1.801,1.442,3.729,0.885,5.79c-0.606,2.207-1.947,3.837-4.04,4.88
			c-2.087,1.044-4.377,1.22-6.862,0.543l-0.286-0.076l0.257-0.942c1.934,0.393,3.586,0.19,4.954-0.593
			c1.371-0.781,2.296-2.053,2.775-3.824c0.52-1.911,0.33-3.664-0.569-5.266c-0.896-1.597-2.284-2.653-4.163-3.167
			c-1.847-0.502-3.695-0.364-5.536,0.412c-1.846,0.78-2.966,1.896-3.362,3.347c-0.208,0.77-0.137,1.509,0.214,2.222
			c0.351,0.719,0.871,1.165,1.542,1.353c0.631,0.172,1.22,0.077,1.781-0.282c0.56-0.355,0.931-0.882,1.123-1.582
			c0.06-0.22,0.097-0.494,0.11-0.816l0.985-0.037c0.023,0.708-0.042,1.361-0.207,1.962c-0.334,1.218-0.945,2.133-1.834,2.735
			c-0.89,0.604-1.86,0.763-2.899,0.482c-0.695-0.193-1.275-0.548-1.739-1.058c-0.461-0.518-0.805-1.196-1.029-2.042
			c-2.034,2.799-5.325,3.575-9.875,2.338L107.042,150.307z M119.723,144.371c-1.706,0.416-2.992,0.853-3.866,1.325
			c-0.872,0.466-1.671,1.165-2.399,2.094l-0.35,0.423c-0.782,1.013-1.598,1.703-2.444,2.059c4.7,1.017,7.646-0.657,8.833-5.017
			L119.723,144.371z"/>
	</g>
</g>
<g>
	<path fill="#F5F5F5" d="M229.578,6.493l0.768,1.678c-1.404,0.647-1.985,2.842-1.728,6.587l0.095,1.563
		c0.146,2.07,0.047,3.618-0.294,4.633c-0.342,1.022-1.129,2.176-2.374,3.464c2.7-0.869,5.063-0.952,7.072-0.251
		c2.017,0.703,3.514,2.131,4.5,4.273c1.056,2.308,1.028,4.676-0.086,7.096c-1.116,2.42-3.021,4.249-5.726,5.492
		c-3.953,1.814-7.935,1.552-11.953-0.773l0.943-1.807c2.497,1.259,4.875,1.367,7.129,0.333c1.784-0.816,3.057-2.104,3.813-3.855
		c0.753-1.75,0.759-3.446,0.009-5.083c-0.595-1.291-1.582-2.151-2.952-2.583c-1.374-0.423-2.781-0.305-4.224,0.357
		c-2.347,1.075-4.323,3.423-5.938,7.043l-0.672,1.455c-1.392,3.105-3.296,5.971-5.709,8.597c-2.422,2.626-4.904,4.524-7.443,5.691
		c-4.078,1.869-8.042,2.193-11.896,0.968c-3.855-1.219-6.628-3.669-8.318-7.349c-1.81-3.946-1.832-7.947-0.055-12.005
		c1.77-4.054,4.877-7.098,9.312-9.133l0.516-0.234l0.77,1.673c-3.286,1.79-5.444,4.083-6.482,6.889
		c-1.044,2.799-0.835,5.779,0.609,8.934c1.568,3.41,3.973,5.729,7.226,6.967c3.252,1.236,6.554,1.087,9.913-0.453
		c3.294-1.514,5.814-3.958,7.552-7.331c1.735-3.373,2.007-6.356,0.818-8.952c-0.63-1.368-1.635-2.362-3.021-2.97
		c-1.379-0.611-2.673-0.639-3.882-0.085c-1.123,0.511-1.865,1.369-2.243,2.566c-0.377,1.201-0.281,2.424,0.291,3.669
		c0.18,0.396,0.457,0.835,0.831,1.318l-1.387,1.258c-0.896-1.007-1.588-2.042-2.076-3.106c-0.998-2.182-1.222-4.251-0.661-6.214
		c0.566-1.961,1.775-3.366,3.636-4.219c1.239-0.569,2.514-0.762,3.808-0.573c1.303,0.191,2.626,0.762,3.983,1.71
		c-0.45-6.54,3.395-11.673,11.524-15.402L229.578,6.493z M218.346,30.538c1.975-2.674,3.316-4.884,4.015-6.622
		c0.697-1.74,1.015-3.729,0.947-5.967l-0.018-1.039c-0.091-2.428,0.265-4.414,1.063-5.957c-8.076,4.228-10.332,10.239-6.755,18.027
		L218.346,30.538z"/>
</g>
<g>
	<path fill="#F5F5F5" d="M262.167,12.566l-0.038,0.972c-0.814-0.034-1.611,0.862-2.385,2.683l-0.33,0.759
		c-0.423,1.011-0.839,1.713-1.241,2.113c-0.403,0.399-1.048,0.75-1.942,1.062c1.48,0.238,2.606,0.76,3.387,1.571
		c0.78,0.81,1.146,1.838,1.1,3.081c-0.051,1.338-0.63,2.444-1.731,3.317c-1.1,0.877-2.439,1.282-4.005,1.219
		c-2.289-0.087-4.101-1.158-5.439-3.211l0.874-0.625c0.875,1.187,1.968,1.803,3.274,1.854c1.036,0.041,1.938-0.263,2.712-0.905
		c0.772-0.644,1.18-1.441,1.22-2.389c0.028-0.751-0.232-1.39-0.779-1.918c-0.542-0.531-1.229-0.809-2.07-0.839
		c-1.355-0.054-2.85,0.58-4.473,1.899l-0.662,0.525c-1.396,1.126-2.975,2.023-4.738,2.683c-1.765,0.66-3.385,0.961-4.858,0.901
		c-2.361-0.091-4.308-0.883-5.832-2.375c-1.522-1.498-2.241-3.306-2.161-5.439c0.091-2.292,1.036-4.182,2.837-5.666
		c1.802-1.486,3.987-2.181,6.559-2.078l0.298,0.013l-0.036,0.968c-1.975,0.062-3.537,0.625-4.695,1.697
		c-1.154,1.071-1.77,2.52-1.839,4.352c-0.076,1.977,0.501,3.644,1.739,5.002c1.233,1.355,2.825,2.07,4.77,2.145
		c1.915,0.074,3.679-0.476,5.303-1.65c1.621-1.173,2.458-2.511,2.52-4.015c0.03-0.796-0.207-1.501-0.712-2.121
		c-0.504-0.615-1.108-0.937-1.81-0.965c-0.647-0.027-1.203,0.197-1.664,0.674c-0.468,0.474-0.713,1.07-0.74,1.795
		c-0.007,0.229,0.02,0.503,0.08,0.819l-0.951,0.262c-0.188-0.688-0.267-1.342-0.243-1.961c0.051-1.265,0.44-2.29,1.172-3.079
		c0.737-0.789,1.641-1.164,2.716-1.119c0.722,0.028,1.364,0.238,1.935,0.637c0.562,0.402,1.049,0.984,1.463,1.757
		c1.349-3.186,4.379-4.689,9.098-4.505L262.167,12.566z M251.148,21.205c1.568-0.792,2.725-1.509,3.471-2.162
		c0.736-0.652,1.361-1.511,1.865-2.581l0.24-0.497c0.533-1.164,1.176-2.013,1.92-2.548c-4.813,0.062-7.304,2.357-7.478,6.874
		L251.148,21.205z"/>
</g>
<rect x="309.101" y="28.143" transform="matrix(-0.9638 0.2666 -0.2666 -0.9638 622.08 -17.0257)" fill="#FFFFFF" width="6.19" height="11.149"/>
<rect x="318.651" y="71.363" transform="matrix(-0.9639 0.2663 -0.2663 -0.9639 652.3622 65.431)" fill="#FFFFFF" width="6.189" height="11.15"/>
<path fill="#FFFFFF" d="M322.803,284.421"/>
<path fill="#FFFFFF" d="M241.269,255.608c-1.354-3.379-4.327-5.949-5.14-8.385c-0.813-2.436-0.947-6.628-0.947-6.628l-0.541-0.675
	c0,0,0-2.436-0.135-3.111c-0.134-0.677-1.759-2.299-1.759-2.299v-2.438c0,0-2.704-5.815-3.516-6.488
	c-0.814-0.679-3.519-2.706-3.651-3.922c-0.138-1.217,1.484-2.839,2.704-3.245c1.215-0.407,5.002-0.813,3.38-4.735
	c-1.623-3.922-5.681-8.249-7.033-11.093c-1.355-2.841-3.247-6.082-3.381-6.765c-0.133-0.673-0.271-1.352-0.271-1.352
	s-2.979-2.975-3.922-3.52c-0.949-0.537-1.488-0.675-2.436-2.159c-0.947-1.488-4.327-9.198-15.688-9.471
	c-11.361-0.271-33.004,3.922-35.978,6.356c-2.977,2.438-16.772,19.749-17.72,20.693c-0.944,0.951-6.355,15.962,1.76,27.189
	c8.114,11.225,11.227,15.283,14.742,16.771c3.518,1.484,12.311,4.867,14.607,3.92c2.299-0.947,0.812-2.842,1.896-5.006
	c1.082-2.163,4.6-1.216,4.6-1.216s-5.276-5.544-4.871-6.626c0,0,5.754,5.275,8.153,8.524c2.397,3.241,5.102,12.171,8.215,12.982
	c3.11,0.811,27.592,2.161,34.354,0C235.455,260.75,242.622,258.991,241.269,255.608z M229.301,227.139c0,0,1.824,2.029,1.824,2.773
	c0,0.74-0.406,1.013-0.406,1.013l-1.422-3.027v-0.759H229.301z M228.354,228.018c0.541,0.269,0.947,2.903,0.947,2.903l-1.691-1.51
	l-0.338-1.394C227.271,228.018,227.809,227.746,228.354,228.018z M226.394,231.669c0,0.406-0.741,0.338-0.98,0
	c-0.239-0.337-1.185-2.232-1.185-2.232s0.54-0.677,0.88-0.742C225.446,228.625,226.394,231.263,226.394,231.669z M207.859,202.184
	c0,0,0.41-7.292,4.196-7.981c1.573-0.283,3.448-0.675,4.867,0c2.37,1.129,3.653,3.924,4.601,5.545
	c0.946,1.624,3.245,5.544,3.52,6.223c0.269,0.676,1.283,2.029-1.827,2.843c-3.111,0.809-6.612,0.809-6.612,0.809
	s-4.345-5.68-5.561-6.355c-1.218-0.677-3.18-0.677-3.18-0.677v-0.405H207.859z M223.889,234.577
	c-0.338,0.135-1.082-0.878-1.419-1.216c-0.34-0.337-2.099-1.895-2.099-2.163c0-0.271,0-0.271,0-0.271
	c0.407-0.067,1.964-1.015,1.964-1.015S224.229,234.441,223.889,234.577z M219.396,236.337c0.032-0.205-2.796-3.854-2.796-3.854
	l1.881-0.813c0,0,1.216,2.57,1.419,3.448C220.103,235.997,219.366,236.538,219.396,236.337z M209.177,204.061
	c1.122,0.218,4.937,4.211,7.423,8.266c2.487,4.062,3.166,6.493,2.625,6.9c-0.545,0.404-1.082,1.081-1.49,0
	c-0.406-1.082-0.376-3.111-1.135-2.705c-0.758,0.405-1.364,1.532-1.774,2.298c-0.604,1.151-1.554,2.131-3.042,1.717
	c-1.486-0.413-4.004-3.7-3.924-9.82C207.929,205.784,208.056,203.839,209.177,204.061z M210.506,238.737
	c0.195-0.439,0.736-2.062,0.736-2.062s1.017,1.285,1.356,2.165c0.337,0.877,1.03,1.958,1.03,1.958s-0.406-0.476-1.19-0.675
	C211.649,239.92,210.305,239.176,210.506,238.737z M210.498,241.612c-0.065,0.675-0.675,0.81-0.811,0.606
	c-0.137-0.2-1.422-2.065-1.488-2.556c-0.067-0.486,0-1.365,0-1.365s1.283-0.812,1.488,0
	C209.891,239.107,210.567,240.933,210.498,241.612z M213.202,236.673c0.069-0.34,0-1.556,0-1.556l0.949-0.542
	c0,0,1.894,2.521,2.164,3.359c0.271,0.835,0.476,1.647,0,1.442C215.842,239.176,213.139,237.012,213.202,236.673z M205.159,239.782
	c0,0,1.284-0.271,1.554,0c0.271,0.272,0,2.977,0,2.977s-2.099-1.689-2.029-2.163C204.752,240.124,205.159,239.782,205.159,239.782z
	 M182.567,208.541c0,0,6.221-6.896,8.25-7.441c2.031-0.537,8.116,0.545,9.331,6.628c1.217,6.089,0.408,10.281-4.866,11.634
	c-5.276,1.354-9.739,1.218-10.415,0.813C184.193,219.767,178.646,215.303,182.567,208.541z M176.346,232.073
	c-1.368,1.22-2.165,2.018-2.479,2.341c-0.094,0.097-0.158,0.163-0.158,0.163s0.05-0.051,0.158-0.163
	c0.963-1.013,6.559-6.94,6.806-8.423c0.271-1.624-2.906-5.545-4.122-6.561c-1.219-1.013-1.491-6.56-1.219-8.387
	c0.271-1.828,0.271-2.435-0.946-2.296c-1.218,0.13-2.571-0.146-3.652,0.13c-1.085,0.28-1.05,0.835-1.674,1.839
	c-0.625,1.004-2.587,3.033-3.871,1.951c-1.284-1.083-3.044-2.704-3.652-3.046c-0.608-0.337-5.614-3.313-4.669-6.424
	c0.95-3.111,0.883-3.38,0.477-3.583c-0.408-0.201-1.759-0.675-1.623-1.558c0.11-0.722,1.167-3.081,1.546-3.911
	c0.082-0.183,0.143-0.317,0.143-0.317s-0.061,0.135-0.143,0.317c-0.436,0.964-1.736,3.999-0.939,4.452
	c0.947,0.545,1.625,0.067,1.489,1.488c-0.136,1.423-1.286,4.532,0.474,6.154c1.756,1.625,5.951,5.211,6.694,5.479
	c0.745,0.272,0.947,1.622,2.637,0c1.691-1.623,1.964-3.381,3.653-3.448c1.688-0.069,5.209-1.082,5.41-0.272
	c0.203,0.813-0.676,8.389,0,9.332c0.675,0.947,6.084,6.021,5.276,7.982C181.148,227.274,178.171,230.447,176.346,232.073z
	 M222.152,244.72c-0.318,0.202-0.834,0.407-0.834-0.472c0-0.88-1.012-4.125-1.383-4.586c-0.368-0.457-1.455,0.529-2.402,1.136
	c-0.947,0.608,0.201,2.099,0.201,2.636c0,0.544,1.828,2.032,1.661,2.439c-0.164,0.402-1.862,0.539-2.133,0.539
	s-0.742-1.556-0.663-2.164c0.08-0.609-0.821-2.704-1.694-2.637c-0.871,0.065-0.549,1.895-0.549,2.773
	c0,0.878,1.485,2.163,1.554,2.565c0.069,0.407-2.163,1.019-2.708,0.949c-0.54-0.066-0.402-4.328-0.402-4.328
	s-1.013,0.203-1.623,0.813c-0.609,0.605,0.069,2.502,0.069,2.772s1.082,1.485,0.813,1.688c-0.269,0.205-2.029,0.677-2.685,0.746
	c-0.659,0.066-1.78,0.404-2.539,0.132c-0.759-0.271,0.421-1.214,0.421-1.214s1.962-0.34,2.085-0.742
	c0.122-0.41-0.123-2.232-0.324-2.232c-0.203,0-2.302-0.069-2.302-0.069s-5.14,2.773-4.8,3.314c0.337,0.541,4.06,1.15,4.06,1.15
	s0.812,1.757-0.813,1.892c-1.624,0.138-6.493-2.365-6.831-3.244c-0.339-0.88-0.541-1.961-1.557-5.477
	c-1.013-3.52-2.979-8.184-3.987-8.523c-1.017-0.339-2.773-0.876-2.979-0.474c-0.201,0.407,0.203,1.625,0.341,3.044
	c0.131,1.421,0.672,3.653-0.068,4.194c-0.744,0.541-4.264,1.212-5.817,0.573c-1.555-0.643-3.72-1.858-4.059-2.265
	c-0.338-0.403-1.353-1.488-1.353-1.488s3.855-3.651,6.492-4.19c2.639-0.543,7.238-0.948,8.522-1.219c1.285-0.27,4.059-1.553,4.868,0
	c0.812,1.554,2.977,6.763,3.989,7.031c1.016,0.272,0.677,2.843,1.283,3.383c0,0,1.016,0.473,1.751,0.539
	c0.737,0.067,0.686-0.134,1.074-0.339c0.393-0.2,1.841-0.269,2.505-0.269c0.66,0,1.702-0.342,1.702-0.342s1.49-0.54,1.691-0.846
	c0.203-0.305,1.354-0.776,1.623-0.7c0.271,0.076,1.622-0.75,1.825-1.093c0.204-0.341,1.149-0.711,1.149-0.711l2.067-0.367
	l1.722-1.106c0,0-0.271,0.971-0.271,1.172C220.847,239.31,222.47,244.519,222.152,244.72z M224.229,243.029
	c-0.067-0.339-1.759-5.683-1.759-5.683l1.461-0.673c0,0,0.027,1.486,0.298,2.365c0.271,0.88,1.488,3.72,1.488,3.72L224.229,243.029z
	 M227.679,241.212c-0.342,0.603-1.488,1.071-1.558,0.7c-0.069-0.368-0.069-2.533-0.406-3.548c-0.338-1.015-0.407-2.232-0.407-2.232
	c0.272,0,0.813,0,0.813,0S228.016,240.614,227.679,241.212z M228.284,240.462c0,0-0.392-1.896-0.567-2.905
	c-0.175-1.017-0.445-2.032-0.445-2.032s0.065-0.135,1.013-0.338c0,0,1.354,3.816,1.285,4.476
	C229.5,240.325,228.284,240.462,228.284,240.462z M231.464,237.935c-0.406,0.497-1.081,0.045-1.016,0
	c0.068-0.044-0.269-1.463-0.541-1.805c-0.271-0.337-0.606-1.541-0.606-1.541h0.911C230.212,234.589,231.871,237.439,231.464,237.935
	z"/>
</svg>
